<svg xmlns="http://www.w3.org/2000/svg" viewBox="0 0 990 620" width="990" height="620" fill="none" role="img" aria-label="Four premium project cards: Cryptographically Enforced AI Forensic Intelligence Platform, CrimeGPT AI Legal Intelligence and Case Management, ASI-Gen Agentic Statistical Report Generation System, EDUMITE Adaptive AI Tutoring">
  <defs>
    <linearGradient id="fpBg" x1="0" y1="0" x2="0" y2="1">
      <stop offset="0%" stop-color="#17171A"/>
      <stop offset="100%" stop-color="#0F0F11"/>
    </linearGradient>
    <linearGradient id="fpStrip" x1="0" y1="0" x2="1" y2="0">
      <stop offset="0%" stop-color="#8A6A28"/>
      <stop offset="100%" stop-color="#D4AF37"/>
    </linearGradient>
    <filter id="fpShadow" x="-20%" y="-20%" width="140%" height="140%">
      <feDropShadow dx="0" dy="10" stdDeviation="12" flood-color="#000000" flood-opacity="0.55"/>
    </filter>
  </defs>
  <style>text{font-family:'Segoe UI',Arial,sans-serif}</style>

  <rect width="990" height="620" fill="#0A0A0B"/>

  <!-- Card 1: Forensic Platform -->
  <g transform="translate(20,20)">
    <rect width="460" height="280" rx="18" fill="url(#fpBg)" stroke="#2A2410" stroke-width="1.2" filter="url(#fpShadow)"/>
    <rect x="0" y="0" width="460" height="6" rx="3" fill="url(#fpStrip)"/>
    <text x="28" y="40" font-size="19" font-weight="800" fill="#F2F1EC">csic-backend</text>
    <text x="28" y="66" font-size="13" font-weight="700" fill="#8A8A8F">Forensic AI Engine</text>
    <text x="28" y="92" font-size="12.5" fill="#B8B8BC">FastAPI backend for tamper-evident log ingestion,</text>
    <text x="28" y="110" font-size="12.5" fill="#B8B8BC">JIT auth, Merkle sealing, WORM storage, and AI</text>
    <text x="28" y="128" font-size="12.5" fill="#B8B8BC">anomaly detection with forensic reporting.</text>
    <g font-size="10.5" font-weight="700" fill="#141210">
      <rect x="28" y="140" width="60" height="24" rx="12" fill="#D4AF37"/><text x="58" y="156" text-anchor="middle">Python</text>
      <rect x="94" y="140" width="62" height="24" rx="12" fill="#D4AF37"/><text x="125" y="156" text-anchor="middle">DuckDB</text>
      <rect x="162" y="140" width="66" height="24" rx="12" fill="#D4AF37"/><text x="195" y="156" text-anchor="middle">OpenCV</text>
      <rect x="234" y="140" width="60" height="24" rx="12" fill="#D4AF37"/><text x="264" y="156" text-anchor="middle">GenAI</text>
    </g>
    <line x1="28" y1="182" x2="432" y2="182" stroke="#D4AF37" stroke-opacity="0.15"/>
    <text x="28" y="208" font-size="12" font-weight="700" fill="#E8A33D">HIGHLIGHT</text>
    <text x="28" y="230" font-size="12.5" fill="#F2F1EC">57/57 tests &#183; SHA-256 chain &#183; GDPR-safe shredding.</text>
    <text x="28" y="256" font-size="11" font-weight="700" fill="#8A8A8F">github.com/SYLESH-1125/csic-backend</text>
  </g>

  <!-- Card 2: CrimeGPT -->
  <g transform="translate(500,20)">
    <rect width="470" height="280" rx="18" fill="url(#fpBg)" stroke="#2A2410" stroke-width="1.2" filter="url(#fpShadow)"/>
    <rect x="0" y="0" width="470" height="6" rx="3" fill="url(#fpStrip)"/>
    <text x="28" y="44" font-size="19" font-weight="800" fill="#F2F1EC">CrimeGPT</text>
    <text x="28" y="66" font-size="13" font-weight="700" fill="#8A8A8F">AI Legal Intelligence &amp; Case Management</text>
    <text x="28" y="92" font-size="12.5" fill="#B8B8BC">Karnataka Police Datathon 2026 Ś grounded RAG,</text>
    <text x="28" y="110" font-size="12.5" fill="#B8B8BC">OCR, and LLMs for legal case management and</text>
    <text x="28" y="128" font-size="12.5" fill="#B8B8BC">auto-generated statutory document drafting.</text>
    <g font-size="10.5" font-weight="700" fill="#141210">
      <rect x="28" y="146" width="70" height="24" rx="12" fill="#D4AF37"/><text x="63" y="162" text-anchor="middle">FastAPI</text>
      <rect x="104" y="146" width="76" height="24" rx="12" fill="#D4AF37"/><text x="142" y="162" text-anchor="middle">pgvector</text>
      <rect x="186" y="146" width="54" height="24" rx="12" fill="#D4AF37"/><text x="213" y="162" text-anchor="middle">OCR</text>
      <rect x="246" y="146" width="52" height="24" rx="12" fill="#D4AF37"/><text x="272" y="162" text-anchor="middle">LLMs</text>
    </g>
    <line x1="28" y1="188" x2="442" y2="188" stroke="#D4AF37" stroke-opacity="0.15"/>
    <text x="28" y="212" font-size="12" font-weight="700" fill="#E8A33D">HIGHLIGHT</text>
    <text x="28" y="234" font-size="12.5" fill="#F2F1EC">Legal AI with immutable audit trail for casework.</text>
    <text x="28" y="258" font-size="11" font-weight="700" fill="#8A8A8F">github.com/SYLESH-1125/CRIMEGPT</text>
  </g>

  <!-- Card 3: ASI-Gen -->
  <g transform="translate(20,320)">
    <rect width="460" height="280" rx="18" fill="url(#fpBg)" stroke="#2A2410" stroke-width="1.2" filter="url(#fpShadow)"/>
    <rect x="0" y="0" width="460" height="6" rx="3" fill="url(#fpStrip)"/>
    <text x="28" y="44" font-size="19" font-weight="800" fill="#F2F1EC">ASI-Gen</text>
    <text x="28" y="66" font-size="13" font-weight="700" fill="#8A8A8F">Agentic Statistical Report Generation System</text>
    <text x="28" y="92" font-size="12.5" fill="#B8B8BC">bharatstat Ś multi-agent RAG for government</text>
    <text x="28" y="110" font-size="12.5" fill="#B8B8BC">statistical reports: survey ingestion, Z-score / IQR</text>
    <text x="28" y="128" font-size="12.5" fill="#B8B8BC">validation, and BERT-backed report generation.</text>
    <g font-size="10.5" font-weight="700" fill="#141210">
      <rect x="28" y="146" width="48" height="24" rx="12" fill="#D4AF37"/><text x="52" y="162" text-anchor="middle">RAG</text>
      <rect x="82" y="146" width="86" height="24" rx="12" fill="#D4AF37"/><text x="125" y="162" text-anchor="middle">LangChain</text>
      <rect x="174" y="146" width="52" height="24" rx="12" fill="#D4AF37"/><text x="200" y="162" text-anchor="middle">LLMs</text>
      <rect x="232" y="146" width="54" height="24" rx="12" fill="#D4AF37"/><text x="259" y="162" text-anchor="middle">BERT</text>
    </g>
    <line x1="28" y1="182" x2="432" y2="182" stroke="#D4AF37" stroke-opacity="0.15"/>
    <text x="28" y="208" font-size="12" font-weight="700" fill="#E8A33D">HIGHLIGHT</text>
    <text x="28" y="230" font-size="12.5" fill="#F2F1EC">Statistical-deviation-free government reporting.</text>
    <text x="28" y="256" font-size="11" font-weight="700" fill="#8A8A8F">github.com/SYLESH-1125/bharatstat</text>
  </g>

  <!-- Card 4: EDUMITE -->
  <g transform="translate(500,320)">
    <rect width="470" height="280" rx="18" fill="url(#fpBg)" stroke="#2A2410" stroke-width="1.2" filter="url(#fpShadow)"/>
    <rect x="0" y="0" width="470" height="6" rx="3" fill="url(#fpStrip)"/>
    <text x="28" y="44" font-size="19" font-weight="800" fill="#F2F1EC">EDUMITE</text>
    <text x="28" y="66" font-size="13" font-weight="700" fill="#8A8A8F">Adaptive AI Tutoring &amp; Cognitive Analytics</text>
    <text x="28" y="92" font-size="12.5" fill="#B8B8BC">SYLEDUTECH / EDUMITE Ś AI tutoring, 3D sign-language</text>
    <text x="28" y="110" font-size="12.5" fill="#B8B8BC">avatars, Gemini-powered study paths, gamified learning,</text>
    <text x="28" y="128" font-size="12.5" fill="#B8B8BC">and 30+ integrated features for accessible education.</text>
    <g font-size="10.5" font-weight="700" fill="#141210">
      <rect x="28" y="146" width="54" height="24" rx="12" fill="#D4AF37"/><text x="55" y="162" text-anchor="middle">LLMs</text>
      <rect x="88" y="146" width="50" height="24" rx="12" fill="#D4AF37"/><text x="113" y="162" text-anchor="middle">NLP</text>
      <rect x="144" y="146" width="62" height="24" rx="12" fill="#D4AF37"/><text x="175" y="162" text-anchor="middle">Python</text>
      <rect x="212" y="146" width="66" height="24" rx="12" fill="#D4AF37"/><text x="245" y="162" text-anchor="middle">Three.js</text>
    </g>
    <line x1="28" y1="182" x2="442" y2="182" stroke="#D4AF37" stroke-opacity="0.15"/>
    <text x="28" y="208" font-size="12" font-weight="700" fill="#E8A33D">HIGHLIGHT</text>
    <text x="28" y="230" font-size="12.5" fill="#F2F1EC">850+ ISL signs Ę Gemini tutor Ę WCAG AA certified.</text>
    <text x="28" y="256" font-size="11" font-weight="700" fill="#8A8A8F">github.com/SYLESH-1125/SYLEDUTECH</text>
  </g>
</svg>
