<svg xmlns="http://www.w3.org/2000/svg" width="1200" height="56" viewBox="0 0 1200 56"><rect width="1200" height="56" rx="12" fill="#0A0A0B" stroke="#D4AF37" stroke-width="1"/><rect x="16" y="10" width="168" height="36" rx="8" fill="#141210" stroke="#6E5420"/><text x="100.0" y="33" text-anchor="middle" font-family="Segoe UI,sans-serif" font-size="11" font-weight="700" fill="#D4AF37">Govt of India Projects</text><rect x="194" y="10" width="108" height="36" rx="8" fill="#141210" stroke="#6E5420"/><text x="248.0" y="33" text-anchor="middle" font-family="Segoe UI,sans-serif" font-size="11" font-weight="700" fill="#D4AF37">4 Ministries</text><rect x="312" y="10" width="128" height="36" rx="8" fill="#141210" stroke="#6E5420"/><text x="376.0" y="33" text-anchor="middle" font-family="Segoe UI,sans-serif" font-size="11" font-weight="700" fill="#D4AF37">Top 10 Finalist</text><rect x="450" y="10" width="128" height="36" rx="8" fill="#141210" stroke="#6E5420"/><text x="514.0" y="33" text-anchor="middle" font-family="Segoe UI,sans-serif" font-size="11" font-weight="700" fill="#D4AF37">30+ Hackathons</text><rect x="588" y="10" width="108" height="36" rx="8" fill="#141210" stroke="#6E5420"/><text x="642.0" y="33" text-anchor="middle" font-family="Segoe UI,sans-serif" font-size="11" font-weight="700" fill="#D4AF37">35+ Projects</text><rect x="706" y="10" width="148" height="36" rx="8" fill="#141210" stroke="#6E5420"/><text x="780.0" y="33" text-anchor="middle" font-family="Segoe UI,sans-serif" font-size="11" font-weight="700" fill="#D4AF37">Agentic AI &amp; Cloud</text><rect x="864" y="10" width="148" height="36" rx="8" fill="#141210" stroke="#6E5420"/><text x="938.0" y="33" text-anchor="middle" font-family="Segoe UI,sans-serif" font-size="11" font-weight="700" fill="#D4AF37">₹1.5L Govt Grants</text><rect x="1022" y="10" width="162" height="36" rx="8" fill="#141210" stroke="#6E5420"/><text x="1103.0" y="33" text-anchor="middle" font-family="Segoe UI,sans-serif" font-size="11" font-weight="700" fill="#D4AF37">6× National Wins</text></svg>
